<svg width="180" height="32" viewBox="0 0 180 32" fill="none" xmlns="http://www.w3.org/2000/svg"><path fill-rule="evenodd" clip-rule="evenodd" d="M56.4 5.4a2.4 2.4 0 1 0 4.8 0 2.4 2.4 0 0 0-4.8 0Zm2.4 20.8a2 2 0 0 0 2-2v-13a2 2 0 0 0-2-2 2 2 0 0 0-2.1 2l.1 13c0 1.1 1 2 2 2Zm14-4.1h7.6a2 2 0 0 1 2 2 2 2 0 0 1-2 2H73a7.3 7.3 0 0 1-7.7-7.3v-3.4c0-2.6 1.9-7.2 7.7-7.2h7.3a2 2 0 0 1 2 2 2 2 0 0 1-2 2h-7.5c-2.4 0-3.5 2-3.5 3.8v2.3c0 1.7 1.1 3.8 3.5 3.8ZM44.6 8h-5.8A4.8 4.8 0 0 0 34 13v11.3c0 1.1.9 2 2 2a2 2 0 0 0 2-2V14c0-1 .7-1.8 1.8-1.8H44c1.7 0 3.8 1.2 3.8 3.5v8.6c0 1 .9 2 2 2a2 2 0 0 0 2-2v-8.3c0-5.9-4.6-7.7-7.3-7.7Zm48.7 0H97c5.9 0 7.7 4.7 7.7 7.3v3.4c0 2.7-1.8 7.3-7.7 7.3h-3.8a7.3 7.3 0 0 1-7.7-7.3v-3.4c0-2.6 1.9-7.2 7.7-7.2Zm4 14c2.4 0 3.6-2 3.6-3.8V16c0-1.8-1.2-3.8-3.5-3.8H93c-2.4 0-3.5 2-3.5 3.8v2.3c0 1.7 1.1 3.8 3.5 3.8h4.3Zm36.9 4.1a2 2 0 0 0 2-2l-.1-13a2 2 0 0 0-2-2 2 2 0 0 0-2 2v13c0 1.1 1 2 2 2Zm0-18.4a2.4 2.4 0 1 1 0-4.8 2.4 2.4 0 0 1 0 4.8Zm21.5 14.3h-7.5c-2.3 0-3.5-2-3.5-3.8V16c0-1.8 1.2-3.8 3.5-3.8h7.5a2 2 0 0 0 2-2 2 2 0 0 0-2-2h-7.2a7.3 7.3 0 0 0-7.7 7.2v3.4c0 2.7 1.8 7.3 7.7 7.3h7.2a2 2 0 0 0 2-2 2 2 0 0 0-2-2ZM119.8 8c2.7 0 7.3 2 7.3 7.8v8.3a2 2 0 0 1-2 2 2 2 0 0 1-2-2v-8.6c0-2.3-2.1-3.5-3.8-3.5H115c-1.1 0-1.8.8-1.8 1.8v10.3a2 2 0 0 1-2 2 2 2 0 0 1-2-2V13c0-2.6 2.1-4.7 4.8-4.7h5.8Zm52.5 0h-3.8a7.3 7.3 0 0 0-7.7 7.3v3.4c0 2.7 1.9 7.3 7.7 7.3h3.8c5.8 0 7.7-4.6 7.7-7.3v-3.4c0-2.6-1.9-7.2-7.7-7.2Zm3.7 10.2c0 1.7-1.1 3.8-3.5 3.8h-4.3c-2.3 0-3.5-2-3.5-3.8V16c0-1.8 1.2-3.8 3.5-3.8h4.3c2.4 0 3.5 2 3.5 3.8v2.3ZM15 8.3h7c1.3 0 2.3 1 2.3 2.3v13c0 1.2-1 2.2-2.2 2.2h-2.8l-1.6 1.9c-.3.3-.7.3-1 0l-1.6-2H9l-1.6 2c-.2.3-.7.3-1 0l-1.6-2H2.2c-1.2 0-2.2-1-2.2-2.1v-13c0-1.2 1-2.2 2.2-2.2h7L6.3 5.7a1 1 0 0 1 0-1.5 1 1 0 0 1 1.4 0L12 8.4l4.5-4.2a1 1 0 0 1 1.4 0c.4.4.3 1 0 1.5l-3 2.7Z" fill="#252525"/></svg>